<svg width="211" height="44" viewBox="0 0 211 44" fill="none" xmlns="http://www.w3.org/2000/svg">
<path d="M49.3 40.6156H45.9V16.9244C45.9 16.0268 45.5418 15.166 44.9042 14.5313C44.2665 13.8966 43.4017 13.54 42.5 13.54H28.9V3.38665C28.9004 2.77377 28.7336 2.17229 28.4174 1.64641C28.1012 1.12052 27.6475 0.689965 27.1048 0.400698C26.562 0.11143 25.9504 -0.0256923 25.3355 0.00396587C24.7205 0.033624 24.1252 0.22895 23.613 0.569095L6.613 11.8478C6.14665 12.1575 5.76447 12.5772 5.50049 13.0695C5.23652 13.5618 5.09894 14.1115 5.1 14.6695V40.6156H1.7C1.24913 40.6156 0.81673 40.7938 0.497918 41.1112C0.179107 41.4285 0 41.859 0 42.3078C0 42.7566 0.179107 43.187 0.497918 43.5044C0.81673 43.8217 1.24913 44 1.7 44H49.3C49.7509 44 50.1833 43.8217 50.5021 43.5044C50.8209 43.187 51 42.7566 51 42.3078C51 41.859 50.8209 41.4285 50.5021 41.1112C50.1833 40.7938 49.7509 40.6156 49.3 40.6156ZM42.5 16.9244V40.6156H28.9V16.9244H42.5ZM8.5 14.6695L25.5 3.38665V40.6156H8.5V14.6695ZM22.1 20.3089V23.6933C22.1 24.1421 21.9209 24.5726 21.6021 24.8899C21.2833 25.2073 20.8509 25.3855 20.4 25.3855C19.9491 25.3855 19.5167 25.2073 19.1979 24.8899C18.8791 24.5726 18.7 24.1421 18.7 23.6933V20.3089C18.7 19.8601 18.8791 19.4296 19.1979 19.1123C19.5167 18.7949 19.9491 18.6167 20.4 18.6167C20.8509 18.6167 21.2833 18.7949 21.6021 19.1123C21.9209 19.4296 22.1 19.8601 22.1 20.3089ZM15.3 20.3089V23.6933C15.3 24.1421 15.1209 24.5726 14.8021 24.8899C14.4833 25.2073 14.0509 25.3855 13.6 25.3855C13.1491 25.3855 12.7167 25.2073 12.3979 24.8899C12.0791 24.5726 11.9 24.1421 11.9 23.6933V20.3089C11.9 19.8601 12.0791 19.4296 12.3979 19.1123C12.7167 18.7949 13.1491 18.6167 13.6 18.6167C14.0509 18.6167 14.4833 18.7949 14.8021 19.1123C15.1209 19.4296 15.3 19.8601 15.3 20.3089ZM15.3 32.1544V35.5389C15.3 35.9877 15.1209 36.4181 14.8021 36.7355C14.4833 37.0528 14.0509 37.2311 13.6 37.2311C13.1491 37.2311 12.7167 37.0528 12.3979 36.7355C12.0791 36.4181 11.9 35.9877 11.9 35.5389V32.1544C11.9 31.7056 12.0791 31.2752 12.3979 30.9579C12.7167 30.6405 13.1491 30.4622 13.6 30.4622C14.0509 30.4622 14.4833 30.6405 14.8021 30.9579C15.1209 31.2752 15.3 31.7056 15.3 32.1544ZM22.1 32.1544V35.5389C22.1 35.9877 21.9209 36.4181 21.6021 36.7355C21.2833 37.0528 20.8509 37.2311 20.4 37.2311C19.9491 37.2311 19.5167 37.0528 19.1979 36.7355C18.8791 36.4181 18.7 35.9877 18.7 35.5389V32.1544C18.7 31.7056 18.8791 31.2752 19.1979 30.9579C19.5167 30.6405 19.9491 30.4622 20.4 30.4622C20.8509 30.4622 21.2833 30.6405 21.6021 30.9579C21.9209 31.2752 22.1 31.7056 22.1 32.1544Z" fill="white"/>
<path d="M72.3184 22.1152H77.4688C78.4883 22.1152 79.2471 22.1592 79.7451 22.2471C80.249 22.3291 80.6973 22.5049 81.0898 22.7744C81.4883 23.0439 81.8193 23.4043 82.083 23.8555C82.3467 24.3008 82.4785 24.8018 82.4785 25.3584C82.4785 25.9619 82.3145 26.5156 81.9863 27.0195C81.6641 27.5234 81.2246 27.9014 80.668 28.1533C81.4531 28.3818 82.0566 28.7715 82.4785 29.3223C82.9004 29.873 83.1113 30.5205 83.1113 31.2646C83.1113 31.8506 82.9736 32.4219 82.6982 32.9785C82.4287 33.5293 82.0566 33.9717 81.582 34.3057C81.1133 34.6338 80.5332 34.8359 79.8418 34.9121C79.4082 34.959 78.3623 34.9883 76.7041 35H72.3184V22.1152ZM74.9199 24.2598V27.2393H76.625C77.6387 27.2393 78.2686 27.2246 78.5146 27.1953C78.96 27.1426 79.3086 26.9902 79.5605 26.7383C79.8184 26.4805 79.9473 26.1436 79.9473 25.7275C79.9473 25.3291 79.8359 25.0068 79.6133 24.7607C79.3965 24.5088 79.0713 24.3564 78.6377 24.3037C78.3799 24.2744 77.6387 24.2598 76.4141 24.2598H74.9199ZM74.9199 29.3838V32.8291H77.3281C78.2656 32.8291 78.8604 32.8027 79.1123 32.75C79.499 32.6797 79.8125 32.5098 80.0527 32.2402C80.2988 31.9648 80.4219 31.5986 80.4219 31.1416C80.4219 30.7549 80.3281 30.4268 80.1406 30.1572C79.9531 29.8877 79.6807 29.6914 79.3232 29.5684C78.9717 29.4453 78.2041 29.3838 77.0205 29.3838H74.9199ZM85.2998 22.1152H87.9014V29.0938C87.9014 30.2012 87.9336 30.9189 87.998 31.2471C88.1094 31.7744 88.373 32.1992 88.7891 32.5215C89.2109 32.8379 89.7852 32.9961 90.5117 32.9961C91.25 32.9961 91.8066 32.8467 92.1816 32.5479C92.5566 32.2432 92.7822 31.8711 92.8584 31.4316C92.9346 30.9922 92.9727 30.2627 92.9727 29.2432V22.1152H95.5742V28.8828C95.5742 30.4297 95.5039 31.5225 95.3633 32.1611C95.2227 32.7998 94.9619 33.3389 94.5811 33.7783C94.2061 34.2178 93.7021 34.5693 93.0693 34.833C92.4365 35.0908 91.6104 35.2197 90.5908 35.2197C89.3604 35.2197 88.4258 35.0791 87.7871 34.7979C87.1543 34.5107 86.6533 34.1416 86.2842 33.6904C85.915 33.2334 85.6719 32.7559 85.5547 32.2578C85.3848 31.5195 85.2998 30.4297 85.2998 28.9883V22.1152ZM98.2461 35V22.1152H100.848V35H98.2461ZM103.405 35V22.2207H106.007V32.8291H112.476V35H103.405ZM114.33 22.1152H119.085C120.157 22.1152 120.975 22.1973 121.537 22.3613C122.293 22.584 122.94 22.9795 123.479 23.5479C124.019 24.1162 124.429 24.8135 124.71 25.6396C124.991 26.46 125.132 27.4736 125.132 28.6807C125.132 29.7412 125 30.6553 124.736 31.4229C124.414 32.3604 123.954 33.1191 123.356 33.6992C122.905 34.1387 122.296 34.4814 121.528 34.7275C120.954 34.9092 120.187 35 119.226 35H114.33V22.1152ZM116.932 24.2949V32.8291H118.874C119.601 32.8291 120.125 32.7881 120.447 32.7061C120.869 32.6006 121.218 32.4219 121.493 32.1699C121.774 31.918 122.003 31.5049 122.179 30.9307C122.354 30.3506 122.442 29.5625 122.442 28.5664C122.442 27.5703 122.354 26.8057 122.179 26.2725C122.003 25.7393 121.757 25.3232 121.44 25.0244C121.124 24.7256 120.723 24.5234 120.236 24.418C119.873 24.3359 119.161 24.2949 118.101 24.2949H116.932ZM127.347 35V22.1152H136.9V24.2949H129.948V27.1514H136.417V29.3223H129.948V32.8291H137.146V35H127.347ZM139.361 35V22.1152H144.837C146.214 22.1152 147.213 22.2324 147.834 22.4668C148.461 22.6953 148.962 23.1055 149.337 23.6973C149.712 24.2891 149.899 24.9658 149.899 25.7275C149.899 26.6943 149.615 27.4941 149.047 28.127C148.479 28.7539 147.629 29.1494 146.498 29.3135C147.061 29.6416 147.523 30.002 147.887 30.3945C148.256 30.7871 148.751 31.4844 149.372 32.4863L150.945 35H147.834L145.953 32.1963C145.285 31.1943 144.828 30.5645 144.582 30.3066C144.336 30.043 144.075 29.8643 143.8 29.7705C143.524 29.6709 143.088 29.6211 142.49 29.6211H141.963V35H139.361ZM141.963 27.5645H143.888C145.136 27.5645 145.915 27.5117 146.226 27.4062C146.536 27.3008 146.779 27.1191 146.955 26.8613C147.131 26.6035 147.219 26.2812 147.219 25.8945C147.219 25.4609 147.102 25.1123 146.867 24.8486C146.639 24.5791 146.313 24.4092 145.892 24.3389C145.681 24.3096 145.048 24.2949 143.993 24.2949H141.963V27.5645ZM151.701 30.8076L154.232 30.5615C154.385 31.4111 154.692 32.0352 155.155 32.4336C155.624 32.832 156.254 33.0312 157.045 33.0312C157.883 33.0312 158.513 32.8555 158.935 32.5039C159.362 32.1465 159.576 31.7305 159.576 31.2559C159.576 30.9512 159.485 30.6934 159.304 30.4824C159.128 30.2656 158.817 30.0781 158.372 29.9199C158.067 29.8145 157.373 29.627 156.289 29.3574C154.895 29.0117 153.916 28.5869 153.354 28.083C152.562 27.374 152.167 26.5098 152.167 25.4902C152.167 24.834 152.352 24.2217 152.721 23.6533C153.096 23.0791 153.632 22.6426 154.329 22.3438C155.032 22.0449 155.879 21.8955 156.869 21.8955C158.486 21.8955 159.702 22.25 160.517 22.959C161.337 23.668 161.768 24.6143 161.809 25.7979L159.207 25.9121C159.096 25.25 158.855 24.7754 158.486 24.4883C158.123 24.1953 157.575 24.0488 156.843 24.0488C156.087 24.0488 155.495 24.2041 155.067 24.5146C154.792 24.7139 154.654 24.9805 154.654 25.3145C154.654 25.6191 154.783 25.8799 155.041 26.0967C155.369 26.3721 156.166 26.6592 157.432 26.958C158.697 27.2568 159.632 27.5674 160.235 27.8896C160.845 28.2061 161.319 28.6426 161.659 29.1992C162.005 29.75 162.178 30.4326 162.178 31.2471C162.178 31.9854 161.973 32.6768 161.562 33.3213C161.152 33.9658 160.572 34.4463 159.822 34.7627C159.072 35.0732 158.138 35.2285 157.019 35.2285C155.39 35.2285 154.139 34.8535 153.266 34.1035C152.393 33.3477 151.871 32.249 151.701 30.8076ZM164.349 35V32.5303H166.818V35H164.349ZM177.62 30.2627L180.143 31.0625C179.756 32.4688 179.111 33.5146 178.209 34.2002C177.312 34.8799 176.173 35.2197 174.79 35.2197C173.079 35.2197 171.673 34.6367 170.571 33.4707C169.47 32.2988 168.919 30.6992 168.919 28.6719C168.919 26.5273 169.473 24.8633 170.58 23.6797C171.688 22.4902 173.144 21.8955 174.948 21.8955C176.524 21.8955 177.805 22.3613 178.789 23.293C179.375 23.8438 179.814 24.6348 180.107 25.666L177.532 26.2812C177.38 25.6133 177.061 25.0859 176.574 24.6992C176.094 24.3125 175.508 24.1191 174.816 24.1191C173.861 24.1191 173.085 24.4619 172.487 25.1475C171.896 25.833 171.6 26.9434 171.6 28.4785C171.6 30.1074 171.893 31.2676 172.479 31.959C173.064 32.6504 173.826 32.9961 174.764 32.9961C175.455 32.9961 176.05 32.7764 176.548 32.3369C177.046 31.8975 177.403 31.2061 177.62 30.2627ZM181.856 28.6367C181.856 27.3242 182.053 26.2227 182.445 25.332C182.738 24.6758 183.137 24.0869 183.641 23.5654C184.15 23.0439 184.707 22.6572 185.311 22.4053C186.113 22.0654 187.039 21.8955 188.088 21.8955C189.986 21.8955 191.504 22.4844 192.641 23.6621C193.783 24.8398 194.354 26.4775 194.354 28.5752C194.354 30.6553 193.789 32.2842 192.658 33.4619C191.527 34.6338 190.016 35.2197 188.123 35.2197C186.207 35.2197 184.684 34.6367 183.553 33.4707C182.422 32.2988 181.856 30.6875 181.856 28.6367ZM184.537 28.5488C184.537 30.0078 184.874 31.1152 185.548 31.8711C186.222 32.6211 187.077 32.9961 188.114 32.9961C189.151 32.9961 190.001 32.624 190.663 31.8799C191.331 31.1299 191.665 30.0078 191.665 28.5137C191.665 27.0371 191.34 25.9355 190.689 25.209C190.045 24.4824 189.187 24.1191 188.114 24.1191C187.042 24.1191 186.178 24.4883 185.521 25.2266C184.865 25.959 184.537 27.0664 184.537 28.5488ZM196.358 35V22.1152H200.252L202.59 30.9043L204.901 22.1152H208.804V35H206.387V24.8574L203.829 35H201.324L198.775 24.8574V35H196.358Z" fill="white"/>
</svg>
